<?xml version="1.0" encoding="utf-8"?>
<!-- Generator: Adobe Illustrator 24.1.2, SVG Export Plug-In . SVG Version: 6.00 Build 0)  -->
<svg version="1.1" id="svg-source" xmlns="http://www.w3.org/2000/svg" xmlns:xlink="http://www.w3.org/1999/xlink" x="0px" y="0px"
	 viewBox="0.719238 0 30.5615616 32.0009995" style="enable-background:new 0.719238 0 30.5615616 32.0009995;"
	 xml:space="preserve">
<g id="light-bulb">
	<g>
		<path d="M15.8091002,6.9180002c-4.8203001,0-8.7451401,3.9238195-8.7451401,8.7469997
			c0,2.6831198,1.2231503,5.1689997,3.35987,6.8521204c0.0390596,0.0580997,0.0893698,0.1078796,0.1479702,0.14888
			c0.0141001,0.0078182,1.1473999,0.7709999,1.1473999,2.2319183c0,0.0209999,0.0229998,0.0362015,0.0229998,0.0610809
			c0.0029001,0.0200005-0.0160999,0.0361195-0.0112,0.0561199l1.4359999,6.5557003
			c0.0552006,0.2514992,0.2758999,0.4301796,0.5351,0.4301796h4.2149c0.2558994,0,0.4790001-0.1786804,0.5351009-0.4301796
			l1.4379997-6.5557003c0.0058994-0.0200005-0.0160999-0.0361195-0.0130997-0.0561199
			c0.0018997-0.02388,0.0257988-0.0390797,0.0257988-0.0610809c0-1.4417992,1.0972004-2.2040997,1.1421013-2.2319183
			c0.0502987-0.0341816,0.0859985-0.0761814,0.1201-0.1230011c2.1547985-1.6840801,3.3891983-4.1830788,3.3891983-6.8779993
			C24.5552006,10.8418198,20.6327991,6.9180002,15.8091002,6.9180002z M17.4771004,30.90382h-3.3320999l-0.1172009-0.5386009
			h3.5664005L17.4771004,30.90382z M17.8339996,29.2681198h-4.0468998l-0.1210995-0.5440006h4.2880993L17.8339996,29.2681198z
			 M18.1947994,27.6259995h-4.7699995l-0.4745998-2.181181h5.7246008L18.1947994,27.6259995z M20.3969994,21.7520008
			c-0.0468998,0.0341187-0.0859985,0.0722179-0.1171989,0.1191177c-0.3656998,0.2948818-1.2388,1.1230011-1.4346008,2.4790001
			h-2.4883003v-7.6479988c0-0.6009998,0.4922009-1.0922003,1.0932999-1.0922003
			c0.3008003,0,0.5488014-0.2455997,0.5488014-0.5489197c0-0.3031807-0.2480011-0.5487804-0.5488014-0.5487804
			c-0.6640987,0-1.2382984,0.3130007-1.6420994,0.7797804c-0.0390997-0.0458803-0.0521994-0.1010799-0.0962-0.1430798
			c-0.4101-0.4111004-0.9569998-0.6382008-1.5337-0.6382008c-0.0033998,0-0.0052996,0-0.0082998,0
			c-0.3008003,0-0.5459003,0.2461004-0.5459003,0.551281c0,0.3032198,0.2451,0.5469198,0.5489006,0.5469198c0,0,0,0,0.0018997,0
			c0,0,0,0,0.0033998,0c0.2837,0,0.5566998,0.1107998,0.7627001,0.3168993c0.2069998,0.2040997,0.3223,0.4804001,0.3223,0.7744007
			v7.6478996h-2.4854002c-0.1927996-1.3491192-1.0619993-2.1762009-1.4326-2.4759998
			c-0.0331993-0.0459003-0.0723-0.0869007-0.1190996-0.1201191c-1.9502201-1.4750805-3.06497-3.6918812-3.06497-6.0888815
			c0-4.2192993,3.4306698-7.6488991,7.6469698-7.6488991c4.2206993,0,7.6508999,3.4305992,7.6508999,7.6488991
			C23.4599991,18.0610008,22.3418007,20.2769203,20.3969994,21.7520008z"/>
		<path d="M16.0020008,4.78122c0.301199,0,0.5487995-0.2460003,0.5487995-0.5483003V0.54882
			c0-0.3027-0.2476006-0.54882-0.5487995-0.54882c-0.3028011,0-0.545001,0.24612-0.545001,0.54882v3.6851001
			C15.4569998,4.5352197,15.6991997,4.78122,16.0020008,4.78122z"/>
		<path d="M7.8007798,7.8559999c0.1093802,0.10882,0.2480502,0.1621199,0.3881803,0.1621199
			c0.1450195,0,0.2822304-0.0532999,0.3872099-0.1612c0.2148504-0.2138,0.2148504-0.5609999,0-0.7757998L5.9741201,4.4771199
			c-0.2143502-0.2164001-0.5620103-0.2164001-0.7758803,0c-0.2114196,0.2128-0.2114196,0.5609999,0,0.7748799L7.8007798,7.8559999z"
			/>
		<path d="M5.5039101,15.2812195c0-0.3022194-0.2460999-0.5493002-0.5468802-0.5493002H1.2680659
			c-0.3032219,0-0.5488279,0.2470808-0.5488279,0.5493002c0,0.3027802,0.245606,0.5489006,0.5488279,0.5489006h3.6889639
			C5.2578101,15.8301201,5.5039101,15.5839996,5.5039101,15.2812195z"/>
		<path d="M7.8090801,22.7031193l-2.6122999,2.6070004c-0.2109404,0.2147999-0.2109404,0.5609989,0,0.7748795
			c0.1103497,0.1079197,0.2490196,0.1611195,0.3901296,0.1611195c0.13623,0,0.2802801-0.0531998,0.3872104-0.1611195
			l2.6079102-2.6049995c0.21387-0.2157803,0.21387-0.5620003,0-0.7758808
			C8.37012,22.4922199,8.0219698,22.4878197,7.8090801,22.7031193z"/>
		<path d="M24.1991997,23.1738186c-0.2143002-0.2089996-0.5590992-0.214819-0.7754002,0
			c-0.2167988,0.216301-0.2167988,0.5620003,0,0.7754002l2.6021004,2.6109009
			c0.1068993,0.1058807,0.2490005,0.1595993,0.3901005,0.1595993c0.1392002,0,0.2798004-0.0537186,0.3871994-0.1595993
			c0.214901-0.2129002,0.214901-0.5611191,0-0.7749004L24.1991997,23.1738186z"/>
		<path d="M30.7318993,14.7319193l-3.6849995-0.0039196c-0.3008003,0-0.5489006,0.2442198-0.5489006,0.5489197
			c0,0.3022003,0.2452011,0.5462999,0.5489006,0.5462999l3.6849995,0.0069008c0.3033009,0,0.5489006-0.2442007,0.5489006-0.5489006
			C31.2807999,14.9790001,31.0370998,14.7319193,30.7318993,14.7319193z"/>
		<path d="M23.8110008,8.01612c0.1391983,0,0.2787991-0.0542002,0.3891983-0.1621199l2.6079006-2.6030002
			c0.2138996-0.2157803,0.2138996-0.5619998,0-0.7758799c-0.2119007-0.2144003-0.5601006-0.2172999-0.7758999,0l-2.607399,2.6039996
			c-0.2168007,0.2158003-0.2168007,0.5610003,0,0.7738805C23.5277996,7.9619198,23.6688995,8.01612,23.8110008,8.01612z"/>
	</g>
</g>
</svg>
