<?xml version="1.0" encoding="utf-8"?>
<!-- Generator: Adobe Illustrator 24.1.2, SVG Export Plug-In . SVG Version: 6.00 Build 0)  -->
<svg version="1.1" id="svg-source" xmlns="http://www.w3.org/2000/svg" xmlns:xlink="http://www.w3.org/1999/xlink" x="0px" y="0px"
	 viewBox="129.5014954 57.5108147 31.9994488 31.9521046"
	 style="enable-background:new 129.5014954 57.5108147 31.9994488 31.9521046;" xml:space="preserve">
<g id="edit">
	<g>
		<path d="M152.0404968,59.0839996l-1.7528992,1.7539177c-0.0028992,0.0010033-0.0028992,0-0.0054016,0.0010033
			c-0.0028992,0.0028992,0,0.0038986-0.0028992,0.0057983l-20.6099091,20.6060028
			c-0.1068878,0.1049957-0.1678925,0.2490005-0.1678925,0.4091949v7.0180054c0,0.3198929,0.262207,0.5800781,0.5791016,0.5800781
			l7.0189972,0.004921c0.1596985,0,0.3047028-0.065918,0.4087067-0.1699219l20.6181946-20.6132813l1.7557983-1.7548981
			c2.1582031-2.1621017,2.1582031-5.6821022,0-7.846199C157.7846985,56.9849205,154.1304016,56.9897194,152.0404968,59.0839996z
			 M130.6596985,88.2979202l-0.0025024-5.0391006l5.0453949,5.044899L130.6596985,88.2979202z M137.0995941,88.0649185
			l-6.2012024-6.2050018l19.7929993-19.7900963l6.2070007,6.1991768L137.0995941,88.0649185z M157.7153015,67.4487228
			l-6.2050018-6.1967239l0.941391-0.9399986l6.2015991,6.2017174L157.7153015,67.4487228z M159.4423981,65.6689224
			l-6.1459961-6.148922c1.6727905-1.2890015,4.2450867-1.1332817,5.766098,0.3779182
			C160.6304016,61.4687195,160.7592926,63.948719,159.4423981,65.6689224z"/>
	</g>
</g>
</svg>
