<?xml version="1.0" encoding="utf-8"?>
<!-- Generator: Adobe Illustrator 24.1.2, SVG Export Plug-In . SVG Version: 6.00 Build 0)  -->
<svg version="1.1" id="svg-source" xmlns="http://www.w3.org/2000/svg" xmlns:xlink="http://www.w3.org/1999/xlink" x="0px" y="0px"
	 viewBox="96.0762024 141.7012177 31.9999962 22.3535004"
	 style="enable-background:new 96.0762024 141.7012177 31.9999962 22.3535004;" xml:space="preserve">
<g id="laptop">
	<g>
		<path d="M127.5044022,160.9810028h-1.3623047v-18.7070923c0-0.3139038-0.2538986-0.5726929-0.5708008-0.5726929H98.580101
			c-0.3149948,0-0.5746994,0.2587891-0.5746994,0.5726929v18.7070923h-1.3549957
			c-0.3145065,0-0.5742035,0.2558136-0.5742035,0.5717163c0,1.3824005,1.125,2.5019989,2.5038986,2.5019989h26.9980011
			c0.0029984,0,0.0029984,0,0.0029984,0c1.3759003-0.0028992,2.4951019-1.125,2.4951019-2.5019989
			C128.0762024,161.2368164,127.8183975,160.9810028,127.5044022,160.9810028z M99.1543045,142.8477173h25.8407974v18.1332855
			H99.1543045V142.8477173z M112.0791016,162.9082184c-0.5361023,0-0.9961014-0.3213043-1.2148056-0.7812195h2.4296036
			C113.080101,162.5869141,112.6211014,162.9082184,112.0791016,162.9082184z M97.3560028,162.1269989h1.2240982h11.1132965
			c0.0737,0.2861176,0.1777039,0.5439148,0.3387985,0.7812195H98.580101
			C98.0381012,162.9082184,97.5723038,162.5879211,97.3560028,162.1269989z M125.5781021,162.9082184v0.5756989
			l-0.0078049-0.5756989h-11.4423981c0.1592026-0.2373047,0.269104-0.4951019,0.3374023-0.7812195h11.1049957h1.2300034
			C126.5820007,162.5879211,126.114296,162.9048157,125.5781021,162.9082184z"/>
		<path d="M124.2230988,159.625v-15.4228821c0-0.3164063-0.2538986-0.5731964-0.5737-0.5731964h-23.1400986
			c-0.3149948,0-0.5751953,0.2567902-0.5751953,0.5731964V159.625c0,0.3169098,0.2602005,0.5737152,0.5751953,0.5737152h23.141098
			C123.9701996,160.1987152,124.2230988,159.9419098,124.2230988,159.625z M123.0741959,159.0537109h-21.9911957v-14.2777863
			h21.9911957V159.0537109z"/>
	</g>
</g>
</svg>
