<?xml version="1.0" encoding="utf-8"?>
<!-- Generator: Adobe Illustrator 24.1.2, SVG Export Plug-In . SVG Version: 6.00 Build 0)  -->
<svg version="1.1" id="svg-source" xmlns="http://www.w3.org/2000/svg" xmlns:xlink="http://www.w3.org/1999/xlink" x="0px" y="0px"
	 viewBox="145.5010071 109.7012177 31.9960957 32" style="enable-background:new 145.5010071 109.7012177 31.9960957 32;"
	 xml:space="preserve">
<g id="gear">
	<g>
		<path d="M161.5,119.3384171c-3.5067902,0-6.3598938,2.8550034-6.3598938,6.3628006
			c0,3.5067902,2.8540039,6.3641968,6.3598938,6.3641968c3.5102997,0,6.3628082-2.8574066,6.3628082-6.3641968
			C167.8628082,122.1934204,165.0102997,119.3384171,161.5,119.3384171z M161.5,130.9033203
			c-2.8672028,0-5.1967926-2.3348999-5.1967926-5.2021027c0-2.867218,2.3295898-5.2012177,5.1967926-5.2012177
			s5.2012024,2.3339996,5.2012024,5.2012177C166.7012024,128.5684204,164.3672028,130.9033203,161.5,130.9033203z"/>
		<path d="M176.9878082,121.2720032l-3.6807098-0.4638824l2.2779083-2.9277039
			c0.1800995-0.2310028,0.1582031-0.5619965-0.0489044-0.7680969l-5.4472046-5.4521027
			c-0.2061005-0.2080994-0.5366974-0.2232132-0.7666016-0.0468979l-2.9321899,2.278801l-0.4589081-3.6802063
			c-0.0361938-0.2929993-0.2851868-0.5106964-0.578186-0.5106964h-7.7070007c-0.2929993,0-0.5400085,0.2176971-0.5781097,0.5121994
			l-0.4589996,3.6805801l-2.9268036-2.2767792c-0.2299957-0.178215-0.5590973-0.1582184-0.7679901,0.0468979l-5.4522095,5.4492035
			c-0.2059937,0.205101-0.2279968,0.5360947-0.0468903,0.7679977l2.2769012,2.927803l-3.6807098,0.4642944
			c-0.2910004,0.0357056-0.5101929,0.2817993-0.5101929,0.5737991v7.7098999c0,0.2929993,0.2191925,0.5381012,0.5101929,0.5762024
			l3.6807098,0.4589996l-2.2769012,2.9331055c-0.1811066,0.230896-0.1591034,0.5605011,0.0468903,0.7665863l5.4522095,5.4482117
			c0.2088928,0.2099915,0.5370941,0.2281036,0.7679901,0.0458984l2.9278107-2.2758026l0.4588928,3.6849976
			c0.0372009,0.2871094,0.2842102,0.5059052,0.5772095,0.5059052h7.7070007c0.2929993,0,0.5410004-0.2187958,0.578186-0.5077972
			l0.4589081-3.6851044l2.9321899,2.2758942c0.2319031,0.1821136,0.5605011,0.1640015,0.7666016-0.0458984l5.4482117-5.4521942
			c0.2070007-0.2080078,0.2289886-0.5371246,0.0487976-0.7700043l-2.2768097-2.9257965l3.6787109-0.4589996
			c0.2919922-0.0379944,0.5092926-0.2832031,0.5092926-0.5760956v-7.7100067
			C177.496109,121.5552139,177.2788086,121.3081207,176.9878082,121.2720032z M176.335907,129.0429993l-4.1840057,0.5209961
			c-0.2080994,0.0254211-0.3847961,0.1611176-0.4648895,0.3540039c-0.0791016,0.1924133-0.051712,0.4131165,0.0771942,0.5791168
			l2.5888062,3.3300018l-4.7251129,4.7270966l-3.3320007-2.589798c-0.1620941-0.125-0.3817902-0.1562958-0.5766907-0.0771942
			c-0.1923065,0.0811005-0.3281097,0.2587738-0.3540039,0.4648895l-0.5243988,4.1870117h-6.6826019l-0.5229034-4.1870117
			c-0.0263977-0.2061157-0.1622009-0.3837891-0.3540039-0.4648895c-0.1933899-0.0830078-0.4130859-0.0503082-0.578186,0.0771942
			l-3.3291016,2.589798l-4.727005-4.7222137l2.5908051-3.3348846c0.1283875-0.1660004,0.157196-0.3867035,0.0791016-0.5791168
			c-0.0820007-0.1928864-0.2578125-0.3285828-0.4648132-0.3540039l-4.187088-0.5209961v-6.682579l4.1880035-0.52742
			c0.2060852-0.02388,0.3847961-0.1605835,0.4638977-0.3529968c0.0780945-0.1928864,0.0492859-0.4135895-0.0791016-0.5795822
			l-2.5917969-3.3281021l4.7269897-4.724205l3.3291016,2.5888901c0.1661072,0.1284103,0.3876953,0.1611099,0.5776978,0.0791168
			c0.1923981-0.0810013,0.3281097-0.2598038,0.3540039-0.4658051l0.5233917-4.1869965h6.6826019l0.5245056,4.1869965
			c0.0258026,0.2060013,0.1616058,0.3848038,0.3540039,0.4658051c0.1918945,0.0790939,0.4134979,0.0478821,0.5765991-0.0791168
			l3.3321075-2.5946884l4.7250824,4.7290039l-2.5888977,3.3280945c-0.1293945,0.1660004-0.1562958,0.3867035-0.0771942,0.5795898
			c0.0782013,0.1909103,0.256897,0.3281097,0.4628906,0.3529968l4.1861115,0.52742v6.6835785H176.335907z"/>
	</g>
</g>
</svg>
